<mxfile host="app.diagrams.net" modified="2022-04-09T15:42:48.237Z" agent="5.0 (Macintosh; Intel Mac OS X 10_15_7) AppleWebKit/537.36 (KHTML, like Gecko) Chrome/99.0.4844.84 Safari/537.36" etag="-lHb_eXY4lIpFJZct0cF" version="17.4.0" type="github">
  <diagram id="ZcDTrNiO4NrEiDOvInOc" name="Page-1">
    <mxGraphModel dx="901" dy="793" grid="1" gridSize="10" guides="1" tooltips="1" connect="1" arrows="1" fold="1" page="1" pageScale="1" pageWidth="827" pageHeight="1169" math="0" shadow="0">
      <root>
        <mxCell id="0" />
        <mxCell id="1" parent="0" />
        <mxCell id="SbsGD3n3HHMCA5a0jeXF-15" style="edgeStyle=orthogonalEdgeStyle;rounded=0;orthogonalLoop=1;jettySize=auto;html=1;exitX=0.5;exitY=0.5;exitDx=0;exitDy=0;exitPerimeter=0;entryX=0;entryY=0.117;entryDx=0;entryDy=0;entryPerimeter=0;" edge="1" parent="1" source="SbsGD3n3HHMCA5a0jeXF-1" target="SbsGD3n3HHMCA5a0jeXF-8">
          <mxGeometry relative="1" as="geometry" />
        </mxCell>
        <mxCell id="SbsGD3n3HHMCA5a0jeXF-17" value="1. enter&amp;nbsp;&lt;br&gt;feedback" style="edgeLabel;html=1;align=center;verticalAlign=middle;resizable=0;points=[];" vertex="1" connectable="0" parent="SbsGD3n3HHMCA5a0jeXF-15">
          <mxGeometry x="0.0701" y="-2" relative="1" as="geometry">
            <mxPoint y="1" as="offset" />
          </mxGeometry>
        </mxCell>
        <mxCell id="SbsGD3n3HHMCA5a0jeXF-1" value="customer" style="shape=umlActor;verticalLabelPosition=bottom;verticalAlign=top;html=1;outlineConnect=0;" vertex="1" parent="1">
          <mxGeometry x="20" y="330" width="30" height="60" as="geometry" />
        </mxCell>
        <mxCell id="SbsGD3n3HHMCA5a0jeXF-3" value="support personnel" style="shape=umlActor;verticalLabelPosition=bottom;verticalAlign=top;html=1;outlineConnect=0;" vertex="1" parent="1">
          <mxGeometry x="760" y="310" width="30" height="60" as="geometry" />
        </mxCell>
        <mxCell id="SbsGD3n3HHMCA5a0jeXF-5" value="mongo DB" style="shape=cylinder3;whiteSpace=wrap;html=1;boundedLbl=1;backgroundOutline=1;size=15;" vertex="1" parent="1">
          <mxGeometry x="470" y="440" width="60" height="80" as="geometry" />
        </mxCell>
        <mxCell id="SbsGD3n3HHMCA5a0jeXF-6" value="Web app" style="swimlane;fontStyle=0;childLayout=stackLayout;horizontal=1;startSize=30;horizontalStack=0;resizeParent=1;resizeParentMax=0;resizeLast=0;collapsible=1;marginBottom=0;" vertex="1" parent="1">
          <mxGeometry x="130" y="300" width="110" height="120" as="geometry" />
        </mxCell>
        <mxCell id="SbsGD3n3HHMCA5a0jeXF-7" value="Account Number" style="text;strokeColor=none;fillColor=none;align=left;verticalAlign=middle;spacingLeft=4;spacingRight=4;overflow=hidden;points=[[0,0.5],[1,0.5]];portConstraint=eastwest;rotatable=0;" vertex="1" parent="SbsGD3n3HHMCA5a0jeXF-6">
          <mxGeometry y="30" width="110" height="30" as="geometry" />
        </mxCell>
        <mxCell id="SbsGD3n3HHMCA5a0jeXF-8" value="Customer Name" style="text;strokeColor=none;fillColor=none;align=left;verticalAlign=middle;spacingLeft=4;spacingRight=4;overflow=hidden;points=[[0,0.5],[1,0.5]];portConstraint=eastwest;rotatable=0;" vertex="1" parent="SbsGD3n3HHMCA5a0jeXF-6">
          <mxGeometry y="60" width="110" height="30" as="geometry" />
        </mxCell>
        <mxCell id="SbsGD3n3HHMCA5a0jeXF-9" value="Feedback" style="text;strokeColor=none;fillColor=none;align=left;verticalAlign=middle;spacingLeft=4;spacingRight=4;overflow=hidden;points=[[0,0.5],[1,0.5]];portConstraint=eastwest;rotatable=0;" vertex="1" parent="SbsGD3n3HHMCA5a0jeXF-6">
          <mxGeometry y="90" width="110" height="30" as="geometry" />
        </mxCell>
        <mxCell id="SbsGD3n3HHMCA5a0jeXF-11" value="Feedback service" style="shape=process;whiteSpace=wrap;html=1;backgroundOutline=1;" vertex="1" parent="1">
          <mxGeometry x="312" y="300" width="138" height="90" as="geometry" />
        </mxCell>
        <mxCell id="SbsGD3n3HHMCA5a0jeXF-13" value="Sentiment Analysis&lt;br&gt;Service" style="shape=step;perimeter=stepPerimeter;whiteSpace=wrap;html=1;fixedSize=1;" vertex="1" parent="1">
          <mxGeometry x="303" y="90" width="156" height="80" as="geometry" />
        </mxCell>
        <mxCell id="SbsGD3n3HHMCA5a0jeXF-16" value="" style="endArrow=classic;html=1;rounded=0;entryX=0;entryY=0.5;entryDx=0;entryDy=0;exitX=1;exitY=0.5;exitDx=0;exitDy=0;" edge="1" parent="1" source="SbsGD3n3HHMCA5a0jeXF-7" target="SbsGD3n3HHMCA5a0jeXF-11">
          <mxGeometry width="50" height="50" relative="1" as="geometry">
            <mxPoint x="440" y="300" as="sourcePoint" />
            <mxPoint x="490" y="250" as="targetPoint" />
          </mxGeometry>
        </mxCell>
        <mxCell id="SbsGD3n3HHMCA5a0jeXF-18" value="2." style="edgeLabel;html=1;align=center;verticalAlign=middle;resizable=0;points=[];" vertex="1" connectable="0" parent="SbsGD3n3HHMCA5a0jeXF-16">
          <mxGeometry x="0.0833" relative="1" as="geometry">
            <mxPoint y="1" as="offset" />
          </mxGeometry>
        </mxCell>
        <mxCell id="SbsGD3n3HHMCA5a0jeXF-19" value="" style="endArrow=classic;html=1;rounded=0;entryX=0.25;entryY=1;entryDx=0;entryDy=0;exitX=0.25;exitY=0;exitDx=0;exitDy=0;" edge="1" parent="1" source="SbsGD3n3HHMCA5a0jeXF-11" target="SbsGD3n3HHMCA5a0jeXF-13">
          <mxGeometry width="50" height="50" relative="1" as="geometry">
            <mxPoint x="440" y="300" as="sourcePoint" />
            <mxPoint x="490" y="250" as="targetPoint" />
          </mxGeometry>
        </mxCell>
        <mxCell id="SbsGD3n3HHMCA5a0jeXF-20" value="3. Request&amp;nbsp;&lt;br&gt;sentiment score" style="edgeLabel;html=1;align=center;verticalAlign=middle;resizable=0;points=[];" vertex="1" connectable="0" parent="SbsGD3n3HHMCA5a0jeXF-19">
          <mxGeometry x="0.2998" relative="1" as="geometry">
            <mxPoint as="offset" />
          </mxGeometry>
        </mxCell>
        <mxCell id="SbsGD3n3HHMCA5a0jeXF-21" value="" style="endArrow=classic;html=1;rounded=0;entryX=0.75;entryY=0;entryDx=0;entryDy=0;exitX=0.75;exitY=1;exitDx=0;exitDy=0;" edge="1" parent="1" source="SbsGD3n3HHMCA5a0jeXF-13" target="SbsGD3n3HHMCA5a0jeXF-11">
          <mxGeometry width="50" height="50" relative="1" as="geometry">
            <mxPoint x="356.5" y="310" as="sourcePoint" />
            <mxPoint x="352" y="180" as="targetPoint" />
          </mxGeometry>
        </mxCell>
        <mxCell id="SbsGD3n3HHMCA5a0jeXF-22" value="4. Response&amp;nbsp;&lt;br&gt;Sentiment score" style="edgeLabel;html=1;align=center;verticalAlign=middle;resizable=0;points=[];" vertex="1" connectable="0" parent="SbsGD3n3HHMCA5a0jeXF-21">
          <mxGeometry x="0.2998" relative="1" as="geometry">
            <mxPoint x="1" as="offset" />
          </mxGeometry>
        </mxCell>
        <mxCell id="SbsGD3n3HHMCA5a0jeXF-23" value="" style="endArrow=classic;html=1;rounded=0;entryX=0;entryY=0;entryDx=0;entryDy=52.5;exitX=0.5;exitY=1;exitDx=0;exitDy=0;entryPerimeter=0;" edge="1" parent="1" source="SbsGD3n3HHMCA5a0jeXF-11" target="SbsGD3n3HHMCA5a0jeXF-5">
          <mxGeometry width="50" height="50" relative="1" as="geometry">
            <mxPoint x="430" y="180" as="sourcePoint" />
            <mxPoint x="425.5" y="310" as="targetPoint" />
            <Array as="points">
              <mxPoint x="380" y="490" />
            </Array>
          </mxGeometry>
        </mxCell>
        <mxCell id="SbsGD3n3HHMCA5a0jeXF-24" value="5. Information&amp;nbsp;&lt;br&gt;persist to mongo DB" style="edgeLabel;html=1;align=center;verticalAlign=middle;resizable=0;points=[];" vertex="1" connectable="0" parent="SbsGD3n3HHMCA5a0jeXF-23">
          <mxGeometry x="0.2998" relative="1" as="geometry">
            <mxPoint x="1" as="offset" />
          </mxGeometry>
        </mxCell>
        <mxCell id="SbsGD3n3HHMCA5a0jeXF-26" value="dashboard" style="sketch=0;points=[[0.015,0.015,0],[0.985,0.015,0],[0.985,0.985,0],[0.015,0.985,0],[0.25,0,0],[0.5,0,0],[0.75,0,0],[1,0.25,0],[1,0.5,0],[1,0.75,0],[0.75,1,0],[0.5,1,0],[0.25,1,0],[0,0.75,0],[0,0.5,0],[0,0.25,0]];verticalLabelPosition=bottom;html=1;verticalAlign=top;aspect=fixed;align=center;pointerEvents=1;shape=mxgraph.cisco19.rect;prIcon=telepresence_endpoint_twin_data_display;fillColor=#FAFAFA;strokeColor=#005073;" vertex="1" parent="1">
          <mxGeometry x="570" y="300" width="102.4" height="80" as="geometry" />
        </mxCell>
        <mxCell id="SbsGD3n3HHMCA5a0jeXF-27" value="" style="endArrow=classic;html=1;rounded=0;entryX=0;entryY=0.5;entryDx=0;entryDy=0;exitX=0.5;exitY=0;exitDx=0;exitDy=0;entryPerimeter=0;exitPerimeter=0;" edge="1" parent="1" source="SbsGD3n3HHMCA5a0jeXF-5" target="SbsGD3n3HHMCA5a0jeXF-26">
          <mxGeometry width="50" height="50" relative="1" as="geometry">
            <mxPoint x="391" y="400" as="sourcePoint" />
            <mxPoint x="480" y="502.5" as="targetPoint" />
            <Array as="points">
              <mxPoint x="500" y="340" />
            </Array>
          </mxGeometry>
        </mxCell>
        <mxCell id="SbsGD3n3HHMCA5a0jeXF-28" value="6. Refresh&lt;br&gt;to dashboard" style="edgeLabel;html=1;align=center;verticalAlign=middle;resizable=0;points=[];" vertex="1" connectable="0" parent="SbsGD3n3HHMCA5a0jeXF-27">
          <mxGeometry x="0.2998" relative="1" as="geometry">
            <mxPoint x="1" as="offset" />
          </mxGeometry>
        </mxCell>
        <mxCell id="SbsGD3n3HHMCA5a0jeXF-29" value="7. monitor" style="edgeStyle=orthogonalEdgeStyle;rounded=0;orthogonalLoop=1;jettySize=auto;html=1;exitX=0.5;exitY=0.5;exitDx=0;exitDy=0;exitPerimeter=0;entryX=1;entryY=0.5;entryDx=0;entryDy=0;entryPerimeter=0;" edge="1" parent="1" source="SbsGD3n3HHMCA5a0jeXF-3" target="SbsGD3n3HHMCA5a0jeXF-26">
          <mxGeometry relative="1" as="geometry">
            <mxPoint x="65" y="370" as="sourcePoint" />
            <mxPoint x="140" y="373.51" as="targetPoint" />
          </mxGeometry>
        </mxCell>
      </root>
    </mxGraphModel>
  </diagram>
</mxfile>
